<svg width="129" height="48" viewBox="0 0 129 48" fill="none" xmlns="http://www.w3.org/2000/svg">
<path d="M68.9777 2.37203V4.77404L41.5946 4.8341L14.1816 4.92417L14.0915 7.38624L14.0015 9.87833L41.4145 9.93838L68.8275 10.0285L68.9777 12.3404L69.1278 14.6523L75.1328 11.1994C78.4356 9.27783 81.258 7.62644 81.3781 7.50634C81.5882 7.29616 78.856 5.64478 70.7191 0.990866L68.9777 3.38852e-05V2.37203Z" fill="#3B302A"/>
<path d="M87.6237 7.08636C87.4135 8.22731 86.6629 12.3708 85.9423 16.3341C85.2217 20.2975 84.2308 25.702 83.7504 28.3442L82.8797 33.1483L64.234 33.2383L45.5884 33.2984L46.4891 34.9798C46.9695 35.9106 47.3599 36.9615 47.3599 37.3518C47.3599 39.1233 45.2581 39.0032 74.3826 39.0032H101.045L101.255 37.7121C102.246 31.7671 108.311 28.4043 114.106 30.5961C116.958 31.677 119.33 34.6195 119.871 37.7121L120.081 39.0032H124.405C127.647 39.0032 128.728 38.9131 128.758 38.6128C128.758 38.4327 128.758 36.9014 128.728 35.28C128.668 30.3259 127.317 28.6745 121.882 26.9631L118.67 25.9722L106.57 25.8821L94.4694 25.7921L94.5595 22.099L94.6496 18.4359L103.747 18.3458C108.731 18.3158 112.815 18.1657 112.815 18.0155C112.815 17.355 111.644 16.7845 110.293 16.7845C109.002 16.7845 108.671 16.6344 107.05 15.2832C103.417 12.2507 98.673 9.9988 94.4094 9.24817C93.2084 9.06802 92.0674 8.67769 91.8873 8.43749C91.6771 8.16726 91.4969 7.32656 91.4969 6.51587V5.07467H89.7255H87.954L87.6237 7.08636ZM126.416 29.6353C128.428 31.4368 126.807 32.9981 124.615 31.3167C123.684 30.5961 123.324 29.5152 123.834 28.9747C124.194 28.6445 125.756 29.0348 126.416 29.6353Z" fill="#D64E04"/>
<path d="M55.1063 17.7447L55.0163 19.9366L27.6332 20.0267L0.220215 20.0867V22.4887V24.8907L27.6332 24.9508L55.0163 25.0409L55.1063 27.2027C55.1664 28.4037 55.2865 29.3945 55.4066 29.3945C55.5267 29.3945 56.6977 28.734 58.0188 27.9533C59.3399 27.1727 61.9521 25.6714 63.8136 24.6205C65.6452 23.5696 67.1765 22.6088 67.1765 22.4887C67.1765 22.3386 66.3958 21.7981 65.465 21.2577C64.5042 20.7473 63.3332 20.0567 62.8228 19.7865C62.3424 19.5162 60.4808 18.4353 58.7094 17.4445C56.9679 16.4236 55.4366 15.5829 55.3465 15.5829C55.2565 15.5829 55.1664 16.5738 55.1063 17.7447Z" fill="#D64E04"/>
<path d="M36.2501 31.7666C32.557 32.9076 30.2751 36.2103 30.6354 39.9335C31.0858 44.8276 35.7697 48.0703 40.3936 46.6291C42.5254 45.9685 45.0175 43.6266 45.5279 41.825C46.7289 37.5014 44.7172 33.2979 40.7839 31.9468C39.3727 31.4663 37.5112 31.4063 36.2501 31.7666ZM40.8139 36.8709C41.4745 37.6215 41.6547 38.1019 41.6547 39.2429C41.6246 41.4047 40.3936 42.6057 38.1417 42.6057C35.5595 42.6057 33.9682 39.8734 35.1992 37.5014C36.2501 35.4597 39.2526 35.1294 40.8139 36.8709Z" fill="#3E322C"/>
<path d="M107.74 32.0666C103.987 33.6279 102.096 37.8014 103.267 41.8248C103.807 43.6563 106.299 46.0283 108.311 46.6288C110.292 47.2293 110.803 47.2293 112.694 46.6588C117.889 45.1275 119.901 38.6121 116.508 34.3485C114.586 31.9465 110.533 30.8656 107.74 32.0666ZM112.454 36.3001C113.535 36.9607 114.016 37.9215 114.016 39.5128C114.016 40.3235 113.775 40.8039 112.995 41.5846C112.124 42.4553 111.764 42.6054 110.563 42.6054C109.362 42.6054 109.001 42.4553 108.131 41.5846C105.218 38.6721 108.911 34.1383 112.454 36.3001Z" fill="#3E322C"/>
<path d="M19.0158 34.5592C18.9257 35.2798 18.7756 36.5709 18.6555 37.4116L18.4453 39.0029H23.5796H28.6839L28.8641 37.6818C28.9842 36.9312 29.4045 35.7002 29.7948 34.8895C30.2152 34.1088 30.5455 33.4182 30.5455 33.3582C30.5455 33.3282 27.9933 33.2981 24.8707 33.2981H19.1959L19.0158 34.5592Z" fill="#D54E05"/>
</svg>
